<svg width="835" height="605" viewBox="0 0 835 605" fill="none" xmlns="http://www.w3.org/2000/svg">
<path d="M302.003 1.36865C136.23 1.36865 1.36555 136.233 1.31836 302.006C1.36555 467.779 136.23 602.643 302.003 602.643C467.776 602.643 602.64 467.732 602.64 302.006C602.64 136.233 467.776 1.36865 302.003 1.36865ZM420.918 402.281C391.472 393.552 357.685 387.7 319.038 386.332V319.041H433.14C431.913 350.28 427.43 377.791 420.918 402.281ZM182.852 201.684C212.392 210.461 246.226 216.359 284.968 217.728V284.971H170.63C171.81 253.685 176.293 226.174 182.852 201.684ZM170.914 319.041H284.968V386.285C246.415 387.653 212.723 393.457 183.277 402.187C176.671 377.696 172.14 350.233 170.914 319.041ZM433.14 284.971H319.038V217.68C357.591 216.312 391.284 210.508 420.729 201.778C427.335 226.316 431.913 253.78 433.14 284.971ZM568.004 284.971H467.493C466.266 249.438 461.122 218.105 453.525 190.358C480.564 179.269 503.167 165.867 521.901 151.805C548.232 190.217 564.843 235.754 568.004 284.971ZM500.855 124.955C484.858 136.799 465.747 148.219 442.908 157.798C422.617 104.758 393.171 67.8571 366.934 43.4607C419.549 56.6735 465.794 85.6944 500.855 124.955ZM410.159 169.312C383.828 177.051 353.674 182.289 319.038 183.61V48.6043C344.661 66.9134 384.866 104.287 410.159 169.312ZM284.968 48.2268V183.61C250.143 182.289 219.754 176.957 193.281 169.123C218.621 103.532 259.156 66.3471 284.968 48.2268ZM237.072 43.4607C210.882 67.8571 181.437 104.758 161.146 157.798C138.306 148.219 119.195 136.799 103.198 124.955C138.212 85.6944 184.504 56.6735 237.072 43.4607ZM82.1521 151.805C100.886 165.82 123.536 179.269 150.528 190.311C142.931 218.058 137.787 249.391 136.56 284.924H36.049C39.1635 235.754 55.821 190.217 82.1521 151.805ZM136.56 319.041C137.787 354.574 142.978 385.907 150.528 413.701C123.489 424.743 100.886 438.192 82.1521 452.207C55.821 413.795 39.1635 368.259 36.0019 319.041H136.56ZM103.245 479.057C119.195 467.213 138.306 455.84 161.193 446.214C181.484 499.206 210.882 536.155 237.119 560.551C184.504 547.339 138.212 518.318 103.245 479.057ZM193.847 434.7C220.178 426.961 250.332 421.723 284.921 420.402V555.455C259.392 537.146 219.187 499.726 193.847 434.7ZM319.038 555.738V420.402C353.816 421.723 384.111 427.008 410.489 434.794C385.196 500.386 344.85 537.618 319.038 555.738ZM366.981 560.551C393.171 536.155 422.617 499.254 442.908 446.214C465.747 455.793 484.858 467.213 500.808 479.057C465.794 518.318 419.549 547.339 366.981 560.551ZM521.901 452.207C503.167 438.192 480.517 424.743 453.525 413.701C461.122 385.907 466.266 354.621 467.493 319.041H568.004C564.89 368.259 548.232 413.795 521.901 452.207Z" fill="#006CA2"/>
<path d="M835 300.775C835 256.037 778.975 213.64 693.078 187.348C712.9 99.7995 704.091 30.1463 665.272 7.8463C656.324 2.61543 645.863 0.137652 634.437 0.137652V30.8346C640.769 30.8346 645.863 32.0735 650.13 34.4136C668.851 45.1507 676.973 86.0341 670.641 138.618C669.126 151.558 666.648 165.185 663.62 179.089C636.64 172.481 607.182 167.388 576.209 164.084C557.626 138.618 538.355 115.492 518.945 95.2569C563.821 53.5476 605.943 30.697 634.575 30.697V0C596.72 0 547.164 26.9803 497.058 73.7828C446.952 27.2556 397.396 0.55062 359.541 0.55062V31.2476C388.036 31.2476 430.296 53.9606 475.171 95.3946C455.899 115.63 436.628 138.618 418.32 164.084C387.21 167.388 357.752 172.481 330.772 179.226C327.606 165.461 325.265 152.108 323.613 139.306C317.144 86.7223 325.128 45.839 343.711 34.9642C347.841 32.4865 353.209 31.3852 359.541 31.3852V0.688273C347.978 0.688273 337.517 3.16605 328.431 8.39692C289.75 30.697 281.078 100.212 301.038 187.485C215.417 213.915 159.667 256.175 159.667 300.775C159.667 345.513 215.692 387.91 301.589 414.202C281.767 501.751 290.576 571.404 329.395 593.704C338.343 598.935 348.804 601.413 360.367 601.413C398.222 601.413 447.778 574.432 497.884 527.63C547.99 574.157 597.546 600.862 635.401 600.862C646.964 600.862 657.426 598.384 666.511 593.153C705.192 570.853 713.864 501.338 693.904 414.065C779.25 387.773 835 345.375 835 300.775ZM655.774 208.96C650.681 226.717 644.348 245.025 637.19 263.333C631.547 252.321 625.627 241.308 619.158 230.296C612.826 219.284 606.081 208.547 599.336 198.085C618.882 200.976 637.741 204.555 655.774 208.96ZM592.728 355.562C581.991 374.145 570.979 391.765 559.553 408.146C539.043 409.935 518.257 410.899 497.333 410.899C476.548 410.899 455.762 409.935 435.389 408.283C423.964 391.902 412.814 374.42 402.077 355.975C391.615 337.942 382.117 319.634 373.444 301.188C381.979 282.742 391.615 264.297 401.939 246.264C412.676 227.681 423.688 210.061 435.114 193.68C455.624 191.89 476.41 190.927 497.333 190.927C518.119 190.927 538.905 191.89 559.278 193.542C570.703 209.923 581.853 227.405 592.59 245.851C603.052 263.884 612.55 282.192 621.223 300.637C612.55 319.083 603.052 337.529 592.728 355.562ZM637.19 337.666C644.624 356.112 650.956 374.558 656.187 392.453C638.154 396.858 619.158 400.575 599.473 403.465C606.218 392.866 612.963 381.991 619.295 370.841C625.628 359.829 631.547 348.679 637.19 337.666ZM497.609 484.544C484.807 471.329 472.005 456.6 459.341 440.494C471.73 441.045 484.394 441.458 497.196 441.458C510.135 441.458 522.937 441.183 535.464 440.494C523.075 456.6 510.273 471.329 497.609 484.544ZM395.194 403.465C375.647 400.575 356.788 396.996 338.755 392.591C343.849 374.833 350.181 356.525 357.339 338.217C362.983 349.229 368.902 360.242 375.372 371.254C381.841 382.267 388.449 393.004 395.194 403.465ZM496.921 117.006C509.722 130.221 522.524 144.95 535.188 161.056C522.8 160.505 510.135 160.092 497.333 160.092C484.394 160.092 471.592 160.368 459.066 161.056C471.454 144.95 484.256 130.221 496.921 117.006ZM395.056 198.085C388.311 208.684 381.566 219.559 375.234 230.709C368.902 241.721 362.983 252.734 357.339 263.746C349.906 245.3 343.573 226.855 338.343 208.96C356.375 204.692 375.372 200.976 395.056 198.085ZM270.479 370.428C221.749 349.642 190.226 322.387 190.226 300.775C190.226 279.163 221.749 251.77 270.479 231.122C282.317 226.029 295.257 221.486 308.609 217.219C316.455 244.199 326.78 272.281 339.581 301.05C326.917 329.683 316.731 357.626 309.022 384.469C295.394 380.202 282.455 375.521 270.479 370.428ZM344.537 567.137C325.816 556.4 317.694 515.516 324.026 462.932C325.541 449.993 328.018 436.365 331.047 422.462C358.027 429.069 387.485 434.162 418.457 437.466C437.041 462.932 456.312 486.058 475.722 506.293C430.846 548.003 388.724 570.853 360.092 570.853C353.897 570.716 348.667 569.477 344.537 567.137ZM671.053 462.244C677.523 514.828 669.539 555.711 650.956 566.586C646.826 569.064 641.458 570.165 635.126 570.165C606.631 570.165 564.371 547.452 519.496 506.018C538.768 485.783 558.039 462.794 576.347 437.328C607.457 434.025 636.915 428.931 663.895 422.186C667.061 436.089 669.539 449.442 671.053 462.244ZM724.05 370.428C712.212 375.521 699.273 380.064 685.92 384.331C678.074 357.351 667.75 329.27 654.948 300.5C667.612 271.868 677.799 243.924 685.507 217.081C699.135 221.348 712.074 226.029 724.188 231.122C772.918 251.908 804.441 279.163 804.441 300.775C804.303 322.387 772.78 349.78 724.05 370.428Z" fill="#61DAFB"/>
<path d="M497.193 363.683C531.936 363.683 560.101 335.518 560.101 300.775C560.101 266.032 531.936 237.867 497.193 237.867C462.45 237.867 434.285 266.032 434.285 300.775C434.285 335.518 462.45 363.683 497.193 363.683Z" fill="#61DAFB"/>
</svg>
